<svg width="102" height="37" xmlns="http://www.w3.org/2000/svg" xmlns:xlink="http://www.w3.org/1999/xlink"><defs><path id="a" d="M0 0h73.641v17.034H0z"/><path id="c" d="M0 0h64.75v16.899H0z"/></defs><g fill="none" fill-rule="evenodd"><path d="M.26 34.82v1.475c4.433-1.13 9.11-3.794 11.656-6.18a21.985 21.985 0 0 0 4.402-5.712 2.61 2.61 0 0 1 .09-.151c1.056-2.03 1.884-4.385 2.467-7.156C20.459 9.442 18.105 1.68 17.55.742c-.468-.793-1.34-.744-1.943-.74H.26V17.57h11.507c.058 0 .278.012.335.03.38.065.671.337.736.684.024.105.037.22.028.338-.093 3.437-1.861 10.359-11.707 14.779l-.899.385v1.036M28.261.71h3.859v.625h-3.116v1.777h2.904v.627h-2.904v1.932h3.139v.627h-3.882V.71M34.463 1.335h-1.862V.71h4.469v.625h-1.863v4.963h-.744V1.335M38.085 3.989h1.895l-.932-2.607h-.016l-.947 2.607Zm.556-3.28h.822l2.183 5.589h-.822l-.61-1.684H37.85l-.626 1.684h-.766L38.641.71ZM42.896 1.335h-1.863V.71h4.47v.625H43.64v4.963h-.744V1.335M49.347 5.67h1.237c.508 0 1.878-.14 1.878-2.198 0-1.33-.493-2.137-1.863-2.137h-1.252V5.67ZM48.604.71h1.917c1.722 0 2.685.859 2.685 2.66 0 1.87-.822 2.928-2.685 2.928h-1.917V.71ZM54.265.71h3.859v.625h-3.116v1.777h2.905v.627h-2.905v1.932h3.139v.627h-3.882V.71M61.53.71h3.671v.625h-2.928v1.777h2.568v.627h-2.568v2.559h-.743V.71M68.468 3.284c.697 0 1.291-.18 1.291-.994 0-.547-.297-.955-.994-.955h-1.846v1.949h1.549ZM66.175.71h2.629c1.049 0 1.699.57 1.699 1.463 0 .674-.297 1.228-.971 1.416v.015c.651.127.783.604.838 1.15.047.55.016 1.159.328 1.544h-.83c-.211-.227-.094-.83-.203-1.38-.078-.546-.211-1.01-.932-1.01h-1.814v2.39h-.744V.71ZM71.718 6.298h.744V.71h-.744zM74.612 5.67h1.864c.64 0 1.048-.39 1.048-1.001 0-.727-.587-.93-1.214-.93h-1.698V5.67Zm0-2.558h1.487c.845 0 1.189-.305 1.189-.892 0-.776-.547-.885-1.189-.885h-1.487v1.777ZM73.868.71h2.028c.492 0 1.142 0 1.478.203.369.219.658.617.658 1.166 0 .596-.312 1.04-.83 1.252v.016c.69.14 1.065.658 1.065 1.345 0 .823-.586 1.606-1.698 1.606h-2.701V.71ZM81.745 5.804c1.362 0 1.934-1.174 1.934-2.301 0-1.127-.572-2.301-1.934-2.301-1.361 0-1.933 1.174-1.933 2.3 0 1.128.572 2.302 1.933 2.302Zm0-5.23c1.778 0 2.676 1.41 2.676 2.929s-.898 2.928-2.676 2.928c-1.777 0-2.678-1.41-2.678-2.928S79.968.575 81.745.575ZM89.943 4.278c0 1.408-.806 2.153-2.201 2.153-1.44 0-2.294-.666-2.294-2.153V.71h.744v3.568c0 .987.565 1.526 1.55 1.526.94 0 1.457-.54 1.457-1.526V.71h.744v3.568M93.576 3.284c.698 0 1.293-.18 1.293-.994 0-.547-.299-.955-.994-.955h-1.848v1.949h1.549ZM91.283.71h2.631c1.049 0 1.697.57 1.697 1.463 0 .674-.297 1.228-.97 1.416v.015c.65.127.783.604.838 1.15.046.55.015 1.159.33 1.544h-.83c-.213-.227-.094-.83-.205-1.38-.079-.546-.211-1.01-.93-1.01h-1.817v2.39h-.744V.71Z" fill="#fff"/><g transform="translate(28 .575)"><mask id="b" fill="#fff"><use xlink:href="#a"/></mask><path d="M72.975 5.026c-.43.587-1.135.83-1.791.83-1.668 0-2.66-1.362-2.66-2.819 0-1.627.892-3.037 2.66-3.037 1.22 0 2.191.549 2.402 1.856h-.744c-.149-.846-.83-1.229-1.658-1.229-1.356 0-1.918 1.174-1.918 2.371 0 1.166.672 2.231 1.918 2.231 1.15 0 1.837-.805 1.791-1.823h-1.783v-.627h2.449v2.944h-.469l-.197-.697M3.493 12.947c-.086-.796-.618-1.142-1.385-1.142-.626 0-1.252.228-1.252.955 0 .689.892.791 1.792.994.893.203 1.785.518 1.785 1.614 0 1.19-1.167 1.666-2.184 1.666-1.252 0-2.309-.609-2.309-1.97h.705c0 .937.782 1.345 1.628 1.345.672 0 1.416-.211 1.416-1.017 0-.769-.892-.902-1.784-1.097-.893-.195-1.793-.455-1.793-1.48 0-1.135 1.01-1.635 2.028-1.635 1.142 0 2.011.539 2.058 1.767h-.705" fill="#fff" mask="url(#b)"/></g><path fill="#fff" d="M34.44 12.513h-1.863v-.625h4.47v.625h-1.863v4.964h-.744v-4.964M38.062 15.167h1.894l-.932-2.607h-.015l-.947 2.607Zm.555-3.28h.822l2.184 5.59h-.822l-.61-1.682h-2.364l-.626 1.682h-.767l2.183-5.59ZM43.285 15.167h1.895l-.932-2.607h-.016l-.947 2.607Zm.556-3.28h.822l2.184 5.59h-.822l-.611-1.682H43.05l-.626 1.682h-.767l2.184-5.59ZM48.097 12.513h-1.863v-.625h4.469v.625H48.84v4.964h-.743v-4.964M53.803 11.888h3.672v.625h-2.928v1.777h2.567v.627h-2.567v2.56h-.744v-5.589M60.742 14.462c.697 0 1.292-.18 1.292-.994 0-.547-.298-.955-.994-.955h-1.848v1.949h1.55Zm-2.293-2.574h2.63c1.048 0 1.698.57 1.698 1.462 0 .674-.297 1.229-.97 1.419v.015c.649.125.782.602.837 1.152.047.546.016 1.158.329 1.54h-.83c-.211-.226-.094-.828-.203-1.377-.079-.55-.211-1.01-.932-1.01h-1.816v2.388h-.743v-5.59ZM63.961 11.888h3.86v.625h-3.116v1.777h2.903v.627h-2.903v1.935h3.14v.625h-3.884v-5.589M68.927 17.477h.744v-5.589h-.744zM71.819 16.852h1.864c.642 0 1.048-.393 1.048-1.003 0-.73-.585-.932-1.212-.932h-1.7v1.935Zm0-2.562h1.489c.845 0 1.189-.305 1.189-.893 0-.773-.549-.884-1.189-.884h-1.489v1.777Zm-.742-2.402h2.028c.492 0 1.142 0 1.478.203.367.219.658.619.658 1.166 0 .596-.314 1.04-.83 1.252v.015c.688.143 1.065.658 1.065 1.349 0 .822-.588 1.604-1.7 1.604h-2.699v-5.59ZM81.052 15.456c0 1.41-.807 2.153-2.201 2.153-1.44 0-2.293-.664-2.293-2.153v-3.568h.744v3.568c0 .987.564 1.528 1.549 1.528.939 0 1.457-.541 1.457-1.528v-3.568h.744v3.568M84.685 14.462c.695 0 1.291-.18 1.291-.994 0-.547-.297-.955-.994-.955h-1.846v1.949h1.549Zm-2.293-2.574h2.629c1.048 0 1.699.57 1.699 1.462 0 .674-.297 1.229-.971 1.419v.015c.648.125.783.602.838 1.152.047.546.016 1.158.328 1.54h-.83c-.211-.226-.094-.828-.203-1.377-.078-.55-.211-1.01-.932-1.01h-1.814v2.388h-.744v-5.59Z"/><g transform="translate(28 11.755)"><mask id="d" fill="#fff"><use xlink:href="#c"/></mask><path d="M64.084 5.026c-.43.586-1.135.828-1.791.828-1.668 0-2.662-1.361-2.662-2.817 0-1.629.892-3.037 2.662-3.037 1.221 0 2.191.547 2.402 1.855h-.744c-.148-.845-.83-1.23-1.658-1.23-1.353 0-1.918 1.174-1.918 2.373 0 1.167.674 2.231 1.918 2.231 1.15 0 1.838-.806 1.791-1.825h-1.783v-.627h2.449v2.945h-.469l-.197-.696" fill="#fff" mask="url(#d)"/></g></g></svg>
